<svg width="15" height="15" viewBox="0 0 15 15" fill="none" xmlns="http://www.w3.org/2000/svg">
<path fill-rule="evenodd" clip-rule="evenodd" d="M14.4728 1.14122C14.5348 1.07923 14.584 1.00565 14.6175 0.924662C14.6511 0.843676 14.6684 0.756876 14.6684 0.669218C14.6684 0.581559 14.6511 0.494759 14.6175 0.413773C14.584 0.332787 14.5348 0.259202 14.4728 0.197218C14.4109 0.135234 14.3373 0.0860656 14.2563 0.0525201C14.1753 0.0189747 14.0885 0.00170898 14.0008 0.00170898C13.9132 0.00170898 13.8264 0.0189747 13.7454 0.0525201C13.6644 0.0860656 13.5908 0.135234 13.5288 0.197218L7.33418 6.39322L1.13951 0.197218C1.07753 0.135234 1.00394 0.0860656 0.922953 0.0525201C0.841967 0.0189747 0.755167 0.00170899 0.667509 0.00170898C0.57985 0.00170898 0.49305 0.0189747 0.412064 0.0525201C0.331078 0.0860656 0.257493 0.135234 0.195509 0.197218C0.133525 0.259202 0.0843566 0.332787 0.0508111 0.413773C0.0172657 0.494759 -6.53107e-10 0.581559 0 0.669218C6.53107e-10 0.756876 0.0172657 0.843676 0.0508111 0.924662C0.0843566 1.00565 0.133525 1.07923 0.195509 1.14122L6.39151 7.33588L0.195509 13.5306C0.0703265 13.6557 0 13.8255 0 14.0026C0 14.1796 0.0703265 14.3494 0.195509 14.4746C0.320691 14.5997 0.490474 14.6701 0.667509 14.6701C0.844543 14.6701 1.01433 14.5997 1.13951 14.4746L7.33418 8.27855L13.5288 14.4746C13.654 14.5997 13.8238 14.6701 14.0008 14.6701C14.1779 14.6701 14.3477 14.5997 14.4728 14.4746C14.598 14.3494 14.6684 14.1796 14.6684 14.0026C14.6684 13.8255 14.598 13.6557 14.4728 13.5306L8.27684 7.33588L14.4728 1.14122Z" fill="#BABABA"/>
</svg>

